#N canvas 290 171 944 506 12;
#X obj 78 87 adc~, f 6;
#X obj 73 241 loadbang;
#X msg 73 271 \; pd dsp 1 \;;
#X obj 77 162 dac~, f 6;
#X msg 142 52 \$1 30;
#X obj 142 87 line~;
#X obj 122 127 *~;
#X obj 78 127 *~;
#X obj 142 11 r gain;
#X obj 242 8 r rvstparameter0;
#X obj 242 235 * 100;
#X obj 242 263 dbtorms;
#X obj 242 290 s gain;
#X obj 300 225 s svstparameter0;
#X obj 277 81 vsl 50 128 0 1 0 0 empty empty empty 0 -9 0 10 #fcfcfc #000000 #000000 0 1;
#X msg 277 42 set \$1;
#X text 355 117 range is 0..1;
#X obj 24 34 osc~ 440;
#X obj 497 84 vsl 50 128 0 1 0 0 empty empty empty 0 -9 0 10 #fcfcfc #000000 #000000 0 1;
#X msg 497 45 set \$1;
#X obj 684 85 vsl 50 128 0 1 0 0 empty empty empty 0 -9 0 10 #fcfcfc #000000 #000000 0 1;
#X msg 684 46 set \$1;
#X obj 462 11 r rvstparameter1;
#X obj 649 12 r rvstparameter2;
#X obj 707 229 s svstparameter2;
#X obj 520 228 s svstparameter1;
#X obj 377 358 notein;
#X text 430 410 velocity;
#X text 441 384 channel;
#X text 412 432 note;
#X floatatom 377 432 4 0 127 0 - - - 0;
#X floatatom 396 409 4 0 127 0 - - - 0;
#X floatatom 416 384 0 1 64 0 - - - 0;
#X obj 653 361 tgl 20 0 empty empty empty 20 8 0 8 #dfdfdf #000000 #000000 0 1;
#N canvas 587 106 553 387 note-out 0;
#X obj 81 111 inlet;
#X obj 271 311 noteout;
#X floatatom 141 172 4 0 0 0 - - - 0;
#X text 139 148 rate;
#X text 245 212 vel;
#X text 281 212 length;
#X obj 81 200 metro 500;
#X obj 192 271 makenote 64 250;
#X floatatom 243 236 4 0 0 0 - - - 0;
#X floatatom 294 236 4 0 0 0 - - - 0;
#X obj 81 160 tgl 17 0 empty empty empty 17 7 0 10 #dfdfdf #000000 #000000 0 1;
#X obj 81 230 expr random(40 \, 73);
#X connect 0 0 10 0;
#X connect 2 0 6 1;
#X connect 6 0 11 0;
#X connect 7 0 1 0;
#X connect 7 1 1 1;
#X connect 8 0 7 1;
#X connect 9 0 7 2;
#X connect 10 0 6 0;
#X connect 11 0 7 0;
#X restore 653 388 pd note-out;
#X text 577 354 Generate random note out messages, f 9;
#X text 677 361 ON/OFF;
#X obj 755 444 ctlout;
#X text 787 365 value;
#X text 820 418 channel;
#X floatatom 774 391 4 0 127 0 - - - 0;
#X floatatom 755 364 4 0 127 0 - - - 0;
#X floatatom 794 417 0 1 64 0 - - - 0;
#X text 805 392 control #;
#X text 577 444 control out messages -->;
#X text 369 314 --- midi in ---;
#X text 636 311 --- midi out ---;
#X connect 0 0 7 0;
#X connect 0 1 6 0;
#X connect 1 0 2 0;
#X connect 4 0 5 0;
#X connect 5 0 6 1;
#X connect 5 0 7 1;
#X connect 6 0 3 1;
#X connect 7 0 3 0;
#X connect 8 0 4 0;
#X connect 9 0 10 0;
#X connect 9 0 15 0;
#X connect 10 0 11 0;
#X connect 11 0 12 0;
#X connect 14 0 13 0;
#X connect 14 0 10 0;
#X connect 15 0 14 0;
#X connect 17 0 7 0;
#X connect 17 0 6 0;
#X connect 18 0 25 0;
#X connect 19 0 18 0;
#X connect 20 0 24 0;
#X connect 21 0 20 0;
#X connect 22 0 19 0;
#X connect 23 0 21 0;
#X connect 26 0 30 0;
#X connect 26 1 31 0;
#X connect 26 2 32 0;
#X connect 33 0 34 0;
#X connect 40 0 37 1;
#X connect 41 0 37 0;
#X connect 42 0 37 2;
