#N canvas 290 171 944 506 12;
#X obj 78 87 adc~, f 6;
#X obj 73 241 loadbang;
#X msg 73 271 \; pd dsp 1 \;;
#X obj 77 162 dac~, f 6;
#X msg 142 52 \$1 30;
#X obj 142 87 line~;
#X obj 122 127 *~;
#X obj 78 127 *~;
#X obj 142 11 r gain;
#X obj 242 8 r rvstparameter0;
#X obj 242 235 * 100;
#X obj 242 263 dbtorms;
#X obj 242 290 s gain;
#X obj 300 225 s svstparameter0;
#X obj 277 81 vsl 50 128 0 1 0 0 empty empty empty 0 -9 0 10 #fcfcfc #000000 #000000 0 1;
#X msg 277 42 set \$1;
#X text 355 117 range is 0..1;
#X obj 24 34 osc~ 440;
#X obj 497 84 vsl 50 128 0 1 0 0 empty empty empty 0 -9 0 10 #fcfcfc #000000 #000000 0 1;
#X msg 497 45 set \$1;
#X obj 684 85 vsl 50 128 0 1 0 0 empty empty empty 0 -9 0 10 #fcfcfc #000000 #000000 0 1;
#X msg 684 46 set \$1;
#X obj 462 11 r rvstparameter1;
#X obj 649 12 r rvstparameter2;
#X obj 707 229 s svstparameter2;
#X obj 520 228 s svstparameter1;
#N canvas 259 108 733 576 playhead 0;
#X obj 53 137 r vstTimeInfo.state;
#X obj 60 335 r vstTimeInfo.projectTimeMusic;
#X obj 57 437 r vstTimeInfo.barPositionMusic;
#X obj 390 186 r vstTimeInfo.timeSigNumerator;
#X obj 439 230 r vstTimeInfo.timeSigDenominator;
#X obj 53 162 int;
#X obj 53 187 & 31;
#X floatatom 53 212 5 0 0 0 - - - 0;
#X floatatom 60 360 5 0 0 0 - - - 0;
#X floatatom 57 462 5 0 0 0 - - - 0;
#X floatatom 390 211 5 0 0 0 - - - 0;
#X floatatom 439 255 5 0 0 0 - - - 0;
#X floatatom 344 155 5 0 0 0 - - - 0;
#X obj 344 130 r vstTimeInfo.tempo;
#X text 246 15 time info from host;
#X text 52 71 play \, stop \, record from host (some hosts do not transmit record), f 33;
#X text 53 411 last bar start position \, in quarter notes (optional);
#X text 59 295 musical position in quarter notes (1.0 equals 1 quarter note) (optional), f 46;
#X text 344 90 these are transmited at load time or on change;
#X connect 0 0 5 0;
#X connect 1 0 8 0;
#X connect 2 0 9 0;
#X connect 3 0 10 0;
#X connect 4 0 11 0;
#X connect 5 0 6 0;
#X connect 6 0 7 0;
#X connect 13 0 12 0;
#X restore 654 429 pd playhead;
#N canvas 388 148 734 553 midi 0;
#X obj 81 74 notein;
#X text 134 126 velocity;
#X text 145 100 channel;
#X text 116 148 note;
#X floatatom 81 148 4 0 127 0 - - - 0;
#X floatatom 100 125 4 0 127 0 - - - 0;
#X floatatom 120 100 0 1 64 0 - - - 0;
#X obj 507 82 tgl 20 0 empty empty empty 20 8 0 8 #dfdfdf #000000 #000000 0 1;
#N canvas 587 106 553 387 note-out 0;
#X obj 81 111 inlet;
#X obj 271 311 noteout;
#X floatatom 141 172 4 0 0 0 - - - 0;
#X text 139 148 rate;
#X text 245 212 vel;
#X text 281 212 length;
#X obj 81 200 metro 500;
#X obj 192 271 makenote 64 250;
#X floatatom 243 236 4 0 0 0 - - - 0;
#X floatatom 294 236 4 0 0 0 - - - 0;
#X obj 81 160 tgl 17 0 empty empty empty 17 7 0 10 #dfdfdf #000000 #000000 0 1;
#X obj 81 230 expr random(40 \, 73);
#X connect 0 0 10 0;
#X connect 2 0 6 1;
#X connect 6 0 11 0;
#X connect 7 0 1 0;
#X connect 7 1 1 1;
#X connect 8 0 7 1;
#X connect 9 0 7 2;
#X connect 10 0 6 0;
#X connect 11 0 7 0;
#X restore 507 109 pd note-out;
#X text 431 75 Generate random note out messages, f 9;
#X text 531 82 ON/OFF;
#X obj 482 462 ctlout;
#X text 514 383 value;
#X text 547 436 channel;
#X floatatom 501 409 4 0 127 0 - - - 0;
#X floatatom 482 382 4 0 127 0 - - - 0;
#X floatatom 521 435 0 1 64 0 - - - 0;
#X text 532 410 control #;
#X text 304 462 control out messages -->;
#X text 72 32 --- midi in ---;
#X text 443 32 --- midi out ---;
#X obj 485 269 polytouchout;
#X text 476 203 touch;
#X text 521 212 note;
#X text 476 219 value;
#X floatatom 485 243 4 0 127 0 - - - 0;
#X floatatom 525 243 4 0 127 0 - - - 0;
#X obj 82 230 polytouchin;
#X text 182 258 channel;
#X text 83 189 polyphonic aftertouch, f 10;
#X text 114 304 aftertouch value;
#X text 151 281 note;
#X floatatom 119 280 4 0 127 0 - - - 0;
#X floatatom 82 302 4 0 127 0 - - - 0;
#X floatatom 156 258 0 1 64 0 - - - 0;
#X obj 86 400 ctlin;
#X text 117 488 value;
#X text 130 399 (all controllers \, omni);
#X text 133 458 controller #;
#X text 145 426 channel/port;
#X floatatom 86 487 4 0 127 0 - - - 0;
#X floatatom 102 458 4 0 127 0 - - - 0;
#X floatatom 118 425 0 1 64 0 - - - 0;
#X text 278 354 --- not yet ---;
#X connect 0 0 4 0;
#X connect 0 1 5 0;
#X connect 0 2 6 0;
#X connect 7 0 8 0;
#X connect 14 0 11 1;
#X connect 15 0 11 0;
#X connect 16 0 11 2;
#X connect 25 0 21 0;
#X connect 26 0 21 1;
#X connect 27 0 33 0;
#X connect 27 1 32 0;
#X connect 27 2 34 0;
#X connect 35 0 40 0;
#X connect 35 1 41 0;
#X connect 35 2 42 0;
#X restore 532 430 pd midi;
#N canvas 415 214 646 469 storage 0;
#X obj 185 173 s svstdata;
#X obj 200 348 r rvstdata;
#X obj 201 395 print;
#X msg 184 128 hello world :);
#X text 145 86 1) send the Pd list to be saved.;
#X text 147 230 2) in the host save your project or create a preset.;
#X text 148 288 3) next time you open your project or the preset the list will come out here, f 46;
#X text 71 25 save a Pd list on the host project or preset;
#X connect 1 0 2 0;
#X connect 3 0 0 0;
#X restore 802 427 pd storage;
#X connect 0 0 7 0;
#X connect 0 1 6 0;
#X connect 1 0 2 0;
#X connect 4 0 5 0;
#X connect 5 0 6 1;
#X connect 5 0 7 1;
#X connect 6 0 3 1;
#X connect 7 0 3 0;
#X connect 8 0 4 0;
#X connect 9 0 10 0;
#X connect 9 0 15 0;
#X connect 10 0 11 0;
#X connect 11 0 12 0;
#X connect 14 0 13 0;
#X connect 14 0 10 0;
#X connect 15 0 14 0;
#X connect 17 0 7 0;
#X connect 17 0 6 0;
#X connect 18 0 25 0;
#X connect 19 0 18 0;
#X connect 20 0 24 0;
#X connect 21 0 20 0;
#X connect 22 0 19 0;
#X connect 23 0 21 0;
